<?xml version="1.0" encoding="utf-8"?>
<!-- Generator: Adobe Illustrator 26.4.1, SVG Export Plug-In . SVG Version: 6.00 Build 0)  -->
<svg version="1.1" id="图层_1" xmlns="http://www.w3.org/2000/svg" xmlns:xlink="http://www.w3.org/1999/xlink" x="0px" y="0px"
	 viewBox="0 0 949 256" style="enable-background:new 0 0 949 256;" xml:space="preserve">
<style type="text/css">
	.st0{fill:#036EB7;}
	.st1{fill:#FF8000;}
	.st2{font-family:'LXGWWenKai-Regular';}
	.st3{font-size:119.0589px;}
	.st4{fill:none;}
</style>
<g>
	<path class="st0" d="M127.1,176.5c4.8-1.5,4.8-1.6,4.2-5.9c-1.6-11.6-3-23.2-4.5-34.8c-1.5-11.6-3.1-23.2-4.5-34.8
		c-2.8-24.2-5.4-48.5-8-72.7c-0.8-7.9,1.1-11.3,9.2-13.9c6.6-2.1,13.4-4.1,20.3-4.5c10.3-0.5,20.3,2,29.4,7.1
		c3.3,1.9,4.9,4.6,4.5,8.5c-1.5,14.8-2.8,29.6-4.5,44.4c-2.2,19.8-4.7,39.5-7.2,59.3c-1.8,14.2-3.6,28.5-5.7,42.7
		c-0.5,3.6,1.9,3.7,4.4,5c0.6-4.3,1.1-8.4,1.7-12.4c2.4-18.9,5-37.9,7.3-56.9c2.7-22.1,5.1-44.3,7.6-66.4c0.5-4.4,0.8-8.8,1.1-13.2
		c0.1-1.5,0.6-2.2,2.3-2c9.1,1,17.9,2.9,26,7.4c5,2.8,9.4,6.4,12,11.6c1.2,2.4,2,5.3,2,8c-0.2,8.8-1.9,17.5-4.6,25.9
		c-6.9,20.6-13.7,41.3-21.2,61.7c-5.7,15.5-12.2,30.7-18.7,45.9c-1.6,3.7-0.6,6.1,1.5,9.2c2-4.7,4.1-9.1,5.8-13.5
		c9.7-25.3,19.6-50.5,29-75.9c5.1-13.7,8.9-27.8,11.7-42.2c0.7-3.7,1-7.5,1.5-11.5c8.9,3,16.6,7.7,22.4,15.1c7,8.9,7.8,19,5.6,29.6
		c-3.4,16.6-11.4,31.2-20.2,45.4c-14.9,24-32.4,46-51.6,66.7c-0.8,0.8-1.4,1.9-2.3,2.5c-0.9,0.6-2.1,0.9-3.2,0.9
		c-0.4,0-0.9-1.5-1-2.3c-0.2-11-4.6-20.1-13.4-26.6c-10.6-7.8-22.3-9-34.2-3.4c-12,5.7-18.2,15.6-19,28.9c-0.1,1.2-0.6,2.3-1,3.5
		c-1.3-0.6-2.9-0.8-3.8-1.7c-20.7-22-39.4-45.5-55-71.4c-6.9-11.5-13.1-23.3-16.9-36.3c-2.3-7.9-3.8-16-1.7-24.2
		c2.3-9.3,8.3-16,16.2-21c3.7-2.3,7.7-4.1,11.9-6.3c0.3,1.6,0.5,2.5,0.6,3.5c0.8,12.3,3.9,24.2,7.7,35.8c6.6,19.9,13.6,39.6,21,59.2
		c5.5,14.7,12,29.1,18,43.7c0.2,0.4,0.4,0.8,0.7,1.4c1.9-2.8,3.2-5,1.6-8.7c-12.3-28.5-23.8-57.4-33.7-86.9
		C74,87.1,70.1,74.4,67.9,61.1c-0.3-2-0.5-4-0.7-6c-0.6-5.6,1.2-10.3,5-14.5c5.7-6.2,12.8-9.9,20.8-12c4.5-1.2,9.2-1.8,13.7-2.6
		c2-0.4,2.7,0.3,2.9,2.4c1.9,19,3.9,38,6.1,57c1.7,15.3,3.6,30.6,5.5,45.9c1.4,11.4,3,22.7,4.5,34
		C126.1,169,126.6,172.6,127.1,176.5z"/>
	<path class="st0" d="M163.4,246.3c-18,0-35.9,0-53.9,0c-13,0-26,0.1-39-0.3c-13.3-0.4-25.7-4.3-36.9-11.5
		c-5.5-3.5-10.8-7.5-15-12.7c-1.8-2.3-3-4.6-1.6-7.5c1.3-2.8,3.7-3.5,6.6-3.4c1.3,0.1,2.6,0.1,4,0c7.3-0.5,14.3,0.6,21.4,1.9
		c6,1.1,12.2,1.8,18.3,2.3c40.1,3.2,80.3,3.2,120.4,2.1c11-0.3,22-0.5,33-1.6c10.2-0.9,20.3-3.2,30.5-4.3c6.6-0.7,13.4-0.6,20-0.2
		c4.2,0.3,5.8,5.9,3,9.6c-4.3,5.6-9.5,10.1-15.5,13.8c-13,8.3-27.3,11.9-42.7,11.8C198.5,246.2,180.9,246.3,163.4,246.3z"/>
	<path class="st0" d="M102.4,212.8c-4.6-0.5-9.5-0.2-14-1.6c-8.7-2.6-16.5-7.2-24.3-12c-15.8-9.6-28.9-22.1-39.2-37.4
		c-4-5.9-7.3-12.4-10.2-19c-5.7-12.8-3.5-25,4.8-36.1c2.7-3.6,6-6.8,9.5-10.8c0.6,1.6,1,2.4,1.2,3.3c2.6,12.1,7.7,23.2,13.5,34
		c9.7,18,21.6,34.6,34.3,50.5c6,7.5,12.4,14.8,18.7,22.2C98.4,208.3,100.3,210.4,102.4,212.8z"/>
	<path class="st0" d="M262.8,96.7c13.9,11.4,22.2,27.7,14.7,46.1c-7.3,17.8-18.9,32.2-33.3,44.6C232.3,197.8,219,206,204,211.1
		c-4.2,1.4-9,1.2-13.5,1.8c-0.2-0.3-0.3-0.6-0.5-0.8c1.2-1.3,2.3-2.6,3.5-3.9c20.4-22.8,39.3-46.7,54.2-73.6
		c6.2-11.1,11.4-22.6,14.1-35.1C262,98.5,262.4,97.8,262.8,96.7z"/>
	<path class="st1" d="M145.8,212.8c-8.1,0-16.2,0.1-24.3,0c-3.4,0-3.5-0.3-3.5-3.9c-0.1-12.9,9.2-24.2,22.2-26.9
		c17.3-3.6,33.5,9.8,33.3,27.3c0,2.4-0.6,3.7-3.4,3.6C162,212.7,153.9,212.8,145.8,212.8C145.8,212.8,145.8,212.8,145.8,212.8z"/>
</g>
<text transform="matrix(1.3628 0 0 1 299.9883 176.7725)" class="st2 st3">浅海拾贝</text>
<rect x="305" y="126" class="st4" width="154" height="0"/>
</svg>
